<svg version="1.1" xmlns="http://www.w3.org/2000/svg" xmlns:xlink="http://www.w3.org/1999/xlink" width="197.62934" height="222.87814" viewBox="0,0,197.62934,222.87814"><g transform="translate(-133.15691,-83.17771)"><g data-paper-data="{&quot;isPaintingLayer&quot;:true}" fill-rule="nonzero" stroke-linejoin="miter" stroke-miterlimit="10" stroke-dasharray="" stroke-dashoffset="0" style="mix-blend-mode: normal"><path d="" fill="#2fff00" stroke="none" stroke-width="0.5" stroke-linecap="butt"/><path d="" fill="#2fff00" stroke="none" stroke-width="0.5" stroke-linecap="butt"/><path d="M329.93682,167.49238c-3.91125,0.02812 -13.27288,0.00505 -16.83894,-0.04942c0.25113,-0.16588 0.49716,-0.33841 0.73704,-0.5189c0.15134,0.01903 0.30275,0.0379 0.45422,0.05662c5.34487,0.01073 10.91023,0.24534 16.49711,0.25873c-0.22065,0.17768 -0.43557,0.34885 -0.64516,0.51435c-0.07226,-0.08934 -0.14035,-0.17671 -0.20426,-0.26137z" fill="#2fff00" stroke="none" stroke-width="0.5" stroke-linecap="butt"/><path d="M319.31366,275.20137c-0.10801,0.68749 -0.28462,1.35791 -0.50082,2.01857c-0.13737,0.02581 -0.27379,0.05449 -0.40925,0.08595c0.03112,-0.22673 0.08067,-0.45063 0.15397,-0.67092c0.17237,-0.51803 0.4693,-0.98691 0.75974,-1.45735c-0.00119,0.00792 -0.0024,0.01584 -0.00365,0.02375z" fill="#2fff00" stroke="none" stroke-width="0.5" stroke-linecap="butt"/><path d="" fill="#2fff00" stroke="none" stroke-width="0.5" stroke-linecap="butt"/><path d="" fill="#2fff00" stroke="none" stroke-width="0.5" stroke-linecap="butt"/><path d="M157.30311,290.75014c0.46398,0.06353 0.92397,0.11133 1.37182,0.11133c2.78306,0 7.72474,0.97946 10.28887,0.20063c1.07085,-0.32526 1.91004,-1.26081 3.003,-1.5015c1.5399,-0.33912 3.15077,-0.13376 4.72615,-0.20063c1.92928,0 3.90209,0.62394 5.78436,0.20063c1.09188,-0.24556 1.91726,-1.23007 3.003,-1.5015c0.97111,-0.24278 2.03189,0.24278 3.003,0c1.08574,-0.27143 1.91623,-1.23425 3.003,-1.5015c1.14143,-0.2807 2.36751,0.10204 3.52478,-0.10379c3.5239,-0.62673 7.46314,-3.1163 10.84167,-4.21647c1.88597,-0.61414 3.73228,-1.38894 5.67485,-1.78953c0.98037,-0.20217 2.01986,0.18826 3.003,0c6.29165,-1.20475 11.99782,-4.68796 17.85076,-7.03345c6.44765,-2.58381 13.05048,-6.21339 18.00432,-11.16723c0.69501,-0.24016 1.5749,-0.19088 2.08503,-0.72049c0.7764,-0.80605 0.6761,-2.24721 1.5015,-3.003c1.41164,-1.29258 3.278,-1.97875 4.9522,-2.9064c1.27907,-0.70872 6.8895,-3.38935 7.63696,-3.59417c0.96541,-0.26454 2.02299,0.20392 3.003,0c3.63987,-0.75736 6.57057,-4.31577 9.34983,-6.29246c1.38293,-0.98358 2.9268,-1.75691 4.5182,-2.34628c0.77275,-0.28619 1.70325,0.08641 2.46062,-0.23831c0.22996,-0.0986 -0.3705,-0.4534 -0.29269,-0.6912c0.8207,-2.5081 2.00939,-4.9521 3.62689,-7.03723c0.53557,-0.69041 1.74621,-0.71725 2.15822,-1.4878c0.29747,-0.55633 -0.5321,-1.24627 -0.37027,-1.85602c0.57415,-2.16341 2.54703,-3.81463 3.003,-6.00601c0.20392,-0.98001 -0.26454,-2.03759 0,-3.003c0.44791,-1.6346 1.39511,-3.08931 2.09266,-4.63396c1.82638,-2.7527 0.189,-6.6251 0.80655,-9.85928c0.5937,-3.10927 2.33048,-5.91583 3.003,-9.00901c0.60667,-2.79033 -0.09684,-6.39846 -0.09684,-9.30914c0,-1.001 -0.17929,-2.01819 0,-3.003c0.035,-0.19223 0.70262,0.01144 0.5709,-0.13288c-0.70153,-0.76864 -1.93384,-1.0287 -2.45379,-1.93015c-1.90624,-3.30486 -2.8059,-8.72677 -3.82402,-12.35659c-0.68011,-2.42473 -2.03625,-4.61446 -2.83624,-7.00232c-0.65555,-1.95672 -0.77692,-4.07378 -1.5015,-6.00601c-0.78592,-2.09579 -2.21919,-3.90943 -3.003,-6.00601c-0.6688,-1.78892 -0.63027,-3.79542 -1.32622,-5.57395c-0.75437,-1.92783 -4.05135,-4.94558 -5.23147,-6.15633c-0.15594,-0.296 -3.27986,-6.15629 -3.62689,-7.03723c-0.12929,-0.32819 0.1721,-0.82527 -0.0966,-1.0538c-0.98021,-0.83367 -2.60934,-0.84969 -3.36561,-1.89079c-1.64263,-2.2613 -2.38751,-7.67425 -4.1419,-10.12122c-0.11328,-0.158 -0.38169,0.17327 -0.56983,0.12429c-1.36018,-0.35408 -2.67247,-0.8717 -4.00609,-1.31547c-3.67775,-1.22381 -7.5016,-1.96176 -11.28571,-2.80084c-4.88373,-1.08291 -7.57826,-2.13514 -12.60714,-2.85679c-1.31668,-0.18894 -2.69673,0.15872 -3.98712,-0.16413c-1.31939,-0.33011 -5.2057,-2.65006 -6.98573,-2.89921c-1.487,-0.20814 -3.02568,0.25998 -4.5045,0c-1.68648,-0.29648 -7.84653,-2.61435 -9.90455,-3.20526c-2.91894,-0.8381 -6.01057,-1.37688 -8.63525,-2.90454c-1.5015,0 -3.03693,0.3174 -4.5045,0c-3.52233,-0.7618 -7.07175,-3.6899 -10.51051,-4.5045c-0.80551,-0.19081 -1.66951,0.2662 -2.48122,0.10379c-1.55196,-0.31052 -2.95964,-1.15739 -4.5045,-1.5015c-4.1506,-0.92452 -9.28452,0.66201 -13.51351,0c-1.56368,-0.24478 -2.9395,-1.26536 -4.5045,-1.5015c-3.56336,-0.53768 -7.20695,0.09684 -10.81065,0.09684c-5.00501,0 -10.01001,0 -15.01502,0c0,0 -7.5,0 -7.5,-7.5c0,-7.5 7.5,-7.5 7.5,-7.5c9.16007,0 19.20844,-1.13413 28.22839,0.09684c1.56819,0.21401 2.94679,1.22126 4.5045,1.5015c4.33239,0.77943 9.132,-0.80414 13.51351,0c1.55672,0.28571 2.9525,1.19121 4.5045,1.5015c1.15263,0.23044 2.38645,-0.18923 3.52478,0.10379c2.99847,0.77184 5.79365,2.18913 8.65449,3.37327c0.66945,0.2771 1.14269,1.00436 1.85602,1.13123c1.4783,0.26292 3.003,0 4.5045,0c2.99813,1.36449 6.21425,2.20085 9.38277,3.10147c2.75208,0.78225 5.28606,2.36305 8.11347,2.80075c1.48383,0.2297 3.02806,-0.27317 4.5045,0c2.82191,0.5221 5.2449,2.41187 8.02929,3.10679c0.65509,0.1635 1.35043,-0.25919 2.01889,-0.16413c7.60896,1.08203 7.68483,1.64941 14.41989,3.14922c6.88408,1.53299 17.75267,2.76631 23.17741,8.01999c0.43982,0.42595 4.17383,7.05907 4.6288,8.43918c0.258,0.78261 -0.2787,1.81894 0.23831,2.46062c0.59919,0.74367 1.99584,0.4075 2.6404,1.11221c2.26539,2.47679 3.88904,6.78945 5.28552,9.92698c3.18129,3.08143 4.61606,4.08231 6.78055,8.85868c0.91534,2.01989 0.89619,4.36237 1.67678,6.43806c0.78788,2.09506 2.21708,3.91021 3.003,6.00601c0.72458,1.93222 0.8521,4.04723 1.5015,6.00601c0.90389,2.72636 2.36919,5.25423 3.16977,8.0127c0.83013,2.86029 0.59708,6.14283 2.18198,8.66443c0.95903,1.52583 2.86225,2.41098 3.55222,4.07586c0.66775,1.61126 0.5709,6.58215 0.5709,8.87613c0,3.73397 0.60254,8.04908 -0.09684,11.71188c-0.5937,3.10927 -2.33048,5.91583 -3.003,9.00901c-0.6526,3.00157 0.65081,6.45088 -0.10379,9.53079c-0.40332,1.64617 -1.39511,3.08931 -2.09266,4.63396c-0.82354,1.24123 -0.51668,2.93842 -0.91034,4.37505c-0.59153,2.15873 -2.49734,3.82557 -3.003,6.00601c-0.31375,1.35292 0.23742,2.90117 -0.37027,4.14998c-0.86558,1.77878 -2.68339,2.91899 -3.84778,4.5182c-2.27866,3.12957 -2.46627,7.65619 -5.67481,10.28959c-2.25047,1.84707 -5.77931,1.58219 -8.03619,3.42141c-4.31159,3.51368 -9.07884,7.18933 -14.67419,8.72256c-0.96541,0.26454 -2.02299,-0.20392 -3.003,0c-1.63035,0.33923 -2.82567,1.80149 -4.37505,2.41184c-0.32819,0.12929 -0.82942,-0.17558 -1.0538,0.0966c-0.7119,0.86354 -0.70008,2.22183 -1.5015,3.003c-1.08296,1.05561 -2.61398,1.52168 -3.92098,2.28252c-5.67744,5.67744 -13.6579,9.91159 -21.03472,12.85679c-6.9823,2.7877 -13.70416,6.4382 -21.18828,7.98157c-0.98037,0.20217 -2.01986,-0.18826 -3.003,0c-3.60038,0.68942 -6.9689,2.75184 -10.34325,4.03045c-2.02038,0.76556 -4.06153,1.51884 -6.17326,1.97556c-0.80909,0.17499 -1.67907,-0.30823 -2.48122,-0.10379c-1.08449,0.27639 -1.91726,1.23007 -3.003,1.5015c-0.97111,0.24278 -2.03189,-0.24278 -3.003,0c-1.08574,0.27143 -1.90241,1.29855 -3.003,1.5015c-1.26282,0.23286 -7.0257,0.20063 -9.23065,0.20063c-1.47402,-0.23107 -2.82575,0.97998 -4.28286,1.30087c-1.10383,0.24309 -6.0838,0.20063 -7.72915,0.20063c-3.91262,0 -8.12727,0.43737 -12.01201,0c-2.33052,-0.26238 -5.5347,0.75296 -6.94599,-1.12012c-2.78731,-3.69937 -2.6256,-8.88391 -3.9384,-13.32587l9.38288,-3.55702c0,0 3.97301,0 6.13569,2.89167z" fill="#2fff00" stroke="none" stroke-width="0.5" stroke-linecap="butt"/><path d="M138.75,93.75l9,205" fill="none" stroke="#ff0000" stroke-width="8" stroke-linecap="round"/></g></g></svg>